<?xml version="1.0" encoding="utf-8"?>
<!-- Generator: Adobe Illustrator 16.0.0, SVG Export Plug-In . SVG Version: 6.00 Build 0)  -->
<!DOCTYPE svg PUBLIC "-//W3C//DTD SVG 1.1//EN" "http://www.w3.org/Graphics/SVG/1.1/DTD/svg11.dtd">
<svg version="1.1" id="Layer_1" xmlns="http://www.w3.org/2000/svg" xmlns:xlink="http://www.w3.org/1999/xlink" x="0px" y="0px"
	 width="140.973px" height="174.203px" viewBox="0 0 140.973 174.203" enable-background="new 0 0 140.973 174.203"
	 xml:space="preserve">
<g>
	<circle fill="#686867" cx="70.865" cy="70.943" r="61.55"/>
	<g>
		<g>
			<g>
				<g>
					<g>
						<g>
							<polygon fill="#F2F2F2" points="91.79,28.754 83.459,25.308 63.662,37.33 71.561,41.123 							"/>
						</g>
						<g>
							<polygon fill="#F2F2F2" points="74.5,25.848 66.363,22.75 50.279,31.689 58.403,35.188 							"/>
						</g>
						<g>
							<polygon fill="#F2F2F2" points="44.93,32.475 39.322,30.208 39.229,38.615 46.021,41.207 							"/>
						</g>
						<g>
							<path fill="#F2F2F2" d="M85.406,91.357l-6.239,1.779c0-0.02-0.011-0.039-0.011-0.061l-0.038-0.17
								c-0.041-0.189-0.101-0.389-0.171-0.549l-0.09-0.361l-0.061-0.039c-0.051-0.109-0.119-0.221-0.18-0.34
								c-1.101-1.98-3.451-3.17-6.271-3.17c-0.512,0-1.031,0.039-1.561,0.119c-0.779,0.131-1.562,0.32-2.312,0.621
								c-4.17,1.6-6.739,5.397-5.899,8.68l-21.148,6.289l-0.351-10.699c0.079-0.02,0.17-0.029,0.25-0.061l0.42-0.119l0.189-0.041
								l0.311-0.09l0.56-0.15c0.812-0.209,1.5-0.809,1.92-1.719c0.301-0.65,0.44-1.381,0.392-2.131l-0.91-17.061
								c-0.101-1.789-1.189-3.119-2.66-3.239h-0.16c-0.18,0-0.369,0.01-0.55,0.05l-0.079,0.01l-0.07,0.021l-0.42,0.109
								l-0.939-28.279l6.779,2.59l2.119,18.08l4.261,1.069l-3.109-28.91l8.16,3.53l2.51,25.84l4.82,0.9l-2.359-24.47l8.119,3.649
								l3.411,10.12l3.028,10.38l3.812,12.53L85.406,91.357z"/>
						</g>
						<g>
							<polygon fill="#F2F2F2" points="97.874,61.188 105.141,57.938 100.393,46.108 95.446,54.734 							"/>
						</g>
						<g>
							<polygon fill="#F2F2F2" points="113.055,82.245 101.711,76.437 82.868,75.479 87.401,90.781 							"/>
						</g>
						<g>
							<polygon fill="#F2F2F2" points="107.44,63.523 99.909,66.624 102.686,74.504 114.031,80.318 							"/>
						</g>
						<g>
							<polygon fill="#F2F2F2" points="88.245,44.381 75.838,51.653 78.877,62.036 93.829,53.257 98.768,44.621 							"/>
						</g>
						<g>
							<path fill="#F2F2F2" d="M91.795,112.995H50.123l-2.027-8.492l15.521-4.616c1.227,1.512,3.293,2.373,5.715,2.373
								c0.512,0,1.032-0.035,1.559-0.119c0.779-0.113,1.555-0.322,2.305-0.615c2.142-0.813,3.918-2.213,5.002-3.936
								c0.438-0.714,0.75-1.441,0.918-2.184l6.875-1.993L91.795,112.995z"/>
						</g>
						<path fill="#F2F2F2" d="M77.163,93.915c0.266,3.522-3.994,5.894-6.97,6.209c-2.412,0.252-5.838-0.813-5.682-3.761
							c0.17-3.178,3.789-5.313,6.594-5.729C73.276,90.311,77.163,91.033,77.163,93.915C77.221,94.615,77.163,93.84,77.163,93.915z"
							/>
					</g>
				</g>
				<path fill="#F2F2F2" d="M43.197,89.367c0.021,0.41-0.051,0.83-0.21,1.171c-0.149,0.329-0.369,0.549-0.609,0.608l-0.59,0.16
					l-0.24,0.07l-0.25,0.061l-0.289,0.08l-0.201,0.049c-0.06,0.021-0.119,0.031-0.18,0.021c-0.23-0.021-0.439-0.188-0.58-0.47
					c-0.029-0.041-0.05-0.079-0.07-0.12c-0.09-0.209-0.14-0.459-0.16-0.737l-0.92-17.272c-0.02-0.42,0.051-0.84,0.211-1.18
					c0.021-0.04,0.039-0.08,0.07-0.12c0.149-0.26,0.33-0.44,0.539-0.49l0.16-0.05l0.25-0.061l0.2-0.06l0.05-0.01l0.91-0.25
					c0.061-0.01,0.13-0.01,0.18-0.01c0.43,0.028,0.771,0.59,0.811,1.329L43.197,89.367z"/>
			</g>
		</g>
	</g>
</g>
<g>
	<g>
		<g>
			<path fill="#E3570F" d="M118.735,148.271c1.345,0,2.285,1.058,2.285,2.357c0,1.293-0.951,2.357-2.285,2.357
				c-1.346,0-2.271-1.057-2.271-2.357C116.463,149.34,117.389,148.271,118.735,148.271z M118.735,152.646
				c1.101,0,1.929-0.906,1.929-2.017c0-1.114-0.828-2.017-1.929-2.017c-1.11,0-1.93,0.9-1.93,2.017
				C116.805,151.738,117.624,152.646,118.735,152.646z M118.784,150.936h-0.574v1.074h-0.42v-2.75h0.875
				c0.715,0,1.021,0.219,1.021,0.811c0,0.42-0.115,0.691-0.473,0.813l0.522,1.127h-0.452L118.784,150.936z M118.209,150.566h0.586
				c0.33,0,0.479-0.11,0.479-0.479c0-0.348-0.19-0.463-0.602-0.463h-0.463V150.566z"/>
		</g>
	</g>
	<g>
		<g>
			<path fill="#E3570F" d="M24.714,167.824h2.519v0.373H26.17v3.132h-0.383v-3.132h-1.073V167.824z"/>
			<path fill="#E3570F" d="M31.542,170.992l0.01,0.309c0,0-0.568,0.079-0.977,0.079c-0.757,0-1.003-0.438-1.003-1.293
				c0-0.957,0.419-1.323,1.059-1.323c0.664,0,1.012,0.352,1.012,1.178l-0.021,0.291h-1.666c0.005,0.529,0.166,0.807,0.664,0.807
				C30.998,171.038,31.542,170.992,31.542,170.992z M31.265,169.926c0-0.605-0.196-0.826-0.634-0.826
				c-0.435,0-0.675,0.235-0.675,0.826H31.265z"/>
			<path fill="#E3570F" d="M35.962,168.837l-0.01,0.328c0,0-0.402-0.045-0.595-0.045c-0.579,0-0.734,0.239-0.734,0.905
				c0,0.734,0.114,1.002,0.734,1.002c0.191,0,0.6-0.047,0.6-0.047l0.016,0.328c0,0-0.474,0.07-0.7,0.07
				c-0.806,0-1.037-0.367-1.037-1.354c0-0.912,0.292-1.264,1.042-1.264C35.509,168.764,35.962,168.837,35.962,168.837z"/>
			<path fill="#E3570F" d="M38.732,171.329v-3.677h0.377v1.279c0,0,0.423-0.17,0.775-0.17c0.695,0,0.852,0.342,0.852,1.252v1.314
				h-0.378v-1.309c0-0.664-0.074-0.912-0.527-0.912c-0.338,0-0.722,0.146-0.722,0.146v2.073h-0.377V171.329z"/>
			<path fill="#E3570F" d="M43.687,171.329v-2.519h0.377v0.166c0,0,0.423-0.215,0.781-0.215c0.689,0,0.846,0.342,0.846,1.258v1.31
				h-0.373v-1.304c0-0.67-0.074-0.918-0.532-0.918c-0.333,0-0.722,0.188-0.722,0.188v2.033H43.687z"/>
			<path fill="#E3570F" d="M50.625,170.046c0,0.871-0.223,1.334-1.073,1.334s-1.082-0.422-1.082-1.344
				c0-0.867,0.287-1.272,1.082-1.272C50.313,168.764,50.625,169.186,50.625,170.046z M50.237,170.046c0-0.67-0.201-0.94-0.686-0.94
				c-0.533,0-0.694,0.242-0.694,0.932c0,0.705,0.102,1.006,0.694,1.006C50.146,171.042,50.237,170.71,50.237,170.046z"/>
			<path fill="#E3570F" d="M53.408,167.715h0.372v3.614h-0.372V167.715z"/>
			<path fill="#E3570F" d="M58.722,170.046c0,0.871-0.222,1.334-1.073,1.334c-0.851,0-1.082-0.422-1.082-1.344
				c0-0.867,0.287-1.272,1.082-1.272C58.409,168.764,58.722,169.186,58.722,170.046z M58.334,170.046c0-0.67-0.202-0.94-0.687-0.94
				c-0.533,0-0.693,0.242-0.693,0.932c0,0.705,0.101,1.006,0.693,1.006C58.243,171.042,58.334,170.71,58.334,170.046z"/>
			<path fill="#E3570F" d="M61.319,171.753c0-0.293,0.138-0.429,0.398-0.625c-0.092-0.062-0.137-0.19-0.137-0.349
				c0-0.096,0.166-0.395,0.166-0.395c-0.207-0.097-0.394-0.293-0.394-0.763c0-0.619,0.377-0.858,0.937-0.858
				c0.252,0,0.524,0.063,0.524,0.063l0.734-0.016v0.322h-0.453c0.09,0.096,0.156,0.223,0.156,0.488c0,0.66-0.322,0.852-0.978,0.852
				c-0.045,0-0.19-0.01-0.248-0.02c0,0-0.09,0.221-0.09,0.287c0,0.201,0.045,0.23,0.609,0.23c0.721,0,0.977,0.143,0.977,0.739
				c0,0.584-0.412,0.821-1.123,0.821C61.606,172.533,61.319,172.355,61.319,171.753z M61.974,171.279
				c-0.207,0.156-0.281,0.246-0.281,0.441c0,0.348,0.146,0.475,0.716,0.475c0.508,0,0.733-0.137,0.733-0.469
				c0-0.383-0.166-0.424-0.619-0.424C62.341,171.305,61.974,171.279,61.974,171.279z M62.876,169.622
				c0-0.433-0.162-0.533-0.59-0.533c-0.373,0-0.556,0.138-0.556,0.533c0,0.362,0.127,0.528,0.545,0.528
				C62.698,170.15,62.876,170.021,62.876,169.622z"/>
			<path fill="#E3570F" d="M66.298,168.813l0.631,2.156h0.17l0.631-2.156h0.377l-1.047,3.637h-0.379l0.322-1.119h-0.367
				l-0.715-2.518H66.298z"/>
			<path fill="#E3570F" d="M73.61,167.824h2.519v0.373h-1.062v3.132h-0.383v-3.132H73.61V167.824z"/>
			<path fill="#E3570F" d="M80.397,170.82c0.01,0.16,0.131,0.211,0.293,0.232l-0.016,0.326c-0.303,0-0.463-0.055-0.594-0.191
				c0,0-0.453,0.191-0.933,0.191c-0.438,0-0.686-0.277-0.686-0.77c0-0.484,0.246-0.701,0.766-0.746l0.795-0.076v-0.205
				c0-0.318-0.16-0.459-0.438-0.459c-0.367,0-0.961,0.066-0.961,0.066l-0.017-0.328c0,0,0.604-0.1,0.992-0.1
				c0.533,0,0.795,0.25,0.795,0.819v1.239H80.397z M79.28,170.156c-0.309,0.029-0.434,0.188-0.434,0.443
				c0,0.291,0.131,0.453,0.357,0.453c0.383,0,0.819-0.152,0.819-0.152v-0.805L79.28,170.156z"/>
			<path fill="#E3570F" d="M83.393,171.329v-3.615h0.377v2.11l0.39-0.02l0.75-0.992h0.424l-0.843,1.158l0.855,1.358h-0.428
				l-0.756-1.151l-0.394,0.02v1.133L83.393,171.329L83.393,171.329z"/>
			<path fill="#E3570F" d="M89.788,170.992l0.01,0.309c0,0-0.568,0.079-0.978,0.079c-0.756,0-1.002-0.438-1.002-1.293
				c0-0.957,0.418-1.323,1.06-1.323c0.664,0,1.012,0.352,1.012,1.178l-0.021,0.291h-1.666c0.006,0.529,0.166,0.807,0.664,0.807
				C89.245,171.038,89.788,170.992,89.788,170.992z M89.51,169.926c0-0.605-0.195-0.826-0.633-0.826
				c-0.435,0-0.676,0.235-0.676,0.826H89.51z"/>
			<path fill="#E3570F" d="M94.315,169.186c0,0-0.561-0.08-0.883-0.08c-0.311,0-0.543,0.08-0.543,0.377
				c0,0.236,0.115,0.307,0.615,0.383c0.664,0.105,0.906,0.242,0.906,0.73c0,0.59-0.373,0.784-0.982,0.784
				c-0.322,0-0.887-0.097-0.887-0.097l0.02-0.325c0,0,0.574,0.084,0.832,0.084c0.412,0,0.635-0.091,0.635-0.433
				c0-0.262-0.131-0.321-0.635-0.403c-0.615-0.097-0.887-0.216-0.887-0.709c0-0.556,0.447-0.733,0.906-0.733
				c0.377,0,0.911,0.096,0.911,0.096L94.315,169.186z"/>
			<path fill="#E3570F" d="M102.583,171.266c0,0-0.56,0.114-0.957,0.114c-1.041,0-1.273-0.64-1.273-1.793
				c0-1.185,0.248-1.813,1.273-1.813c0.459,0,0.963,0.117,0.963,0.117l-0.021,0.346c0,0-0.549-0.084-0.901-0.084
				c-0.779,0-0.916,0.468-0.916,1.435c0,0.946,0.131,1.416,0.926,1.416c0.313,0,0.893-0.092,0.893-0.092L102.583,171.266z"/>
			<path fill="#E3570F" d="M107.084,170.82c0.01,0.16,0.131,0.211,0.291,0.232l-0.017,0.326c-0.301,0-0.463-0.055-0.594-0.191
				c0,0-0.453,0.191-0.932,0.191c-0.438,0-0.685-0.277-0.685-0.77c0-0.484,0.246-0.701,0.765-0.746l0.797-0.076v-0.205
				c0-0.318-0.162-0.459-0.439-0.459c-0.367,0-0.961,0.066-0.961,0.066l-0.016-0.328c0,0,0.604-0.1,0.992-0.1
				c0.534,0,0.797,0.25,0.797,0.819L107.084,170.82L107.084,170.82z M105.965,170.156c-0.307,0.029-0.432,0.188-0.432,0.443
				c0,0.291,0.131,0.453,0.356,0.453c0.381,0,0.82-0.152,0.82-0.152v-0.805L105.965,170.156z"/>
			<path fill="#E3570F" d="M110.081,168.813h0.377v0.332c0,0,0.387-0.291,0.875-0.381v0.393c-0.474,0.09-0.875,0.348-0.875,0.348
				v1.826h-0.377V168.813z"/>
			<path fill="#E3570F" d="M115.764,170.992l0.01,0.309c0,0-0.567,0.079-0.977,0.079c-0.756,0-1.002-0.438-1.002-1.293
				c0-0.957,0.418-1.323,1.059-1.323c0.664,0,1.013,0.352,1.013,1.178l-0.021,0.291h-1.666c0.006,0.529,0.166,0.807,0.664,0.807
				C115.221,171.038,115.764,170.992,115.764,170.992z M115.487,169.926c0-0.605-0.194-0.826-0.633-0.826
				c-0.434,0-0.676,0.235-0.676,0.826H115.487z"/>
		</g>
	</g>
	<g>
		<g>
			<path fill="#E3570F" d="M24.755,146.579c1.805,0,3.567-0.003,5.334,0c1.418,0.002,2.838-0.015,4.257,0.01
				c2.013,0.033,3.13,0.938,3.282,2.938c0.137,1.779,0.079,3.582-0.002,5.367c-0.076,1.664-0.998,2.69-2.771,2.955
				c1.138,2.313,2.244,4.567,3.393,6.901c-1.083,0-2.059,0.024-3.027-0.021c-0.202-0.01-0.469-0.254-0.573-0.459
				c-0.981-1.92-1.951-3.851-2.889-5.793c-0.191-0.396-0.404-0.537-0.84-0.523c-1.019,0.035-2.037,0.012-3.104,0.012
				c0,2.271,0,4.475,0,6.732c-1.033,0-2.02,0-3.061,0C24.755,158.701,24.755,152.691,24.755,146.579z M27.813,155.163
				c2.01,0,3.957,0.002,5.904,0c0.59-0.003,0.822-0.347,0.824-0.896c0.002-1.254,0.017-2.51,0.005-3.767
				c-0.009-0.918-0.204-1.104-1.114-1.106c-1.697-0.008-3.395-0.004-5.092,0c-0.176,0.002-0.351,0.035-0.527,0.055
				C27.813,151.363,27.813,153.223,27.813,155.163z"/>
			<path fill="#E3570F" d="M58.236,162.887c0,0.643,0,1.217,0,1.825c-0.984,0-1.927,0-2.906,0c0-6.293,0-12.563,0-18.888
				c0.932,0,1.871,0,2.879,0c0,2.229,0,4.47,0,6.893c0.264-0.246,0.405-0.371,0.537-0.507c1.571-1.599,4.643-2.129,6.678-1.17
				c1.082,0.513,1.521,1.448,1.533,2.537c0.037,2.856,0.057,5.717-0.063,8.569c-0.063,1.574-1.01,2.381-2.59,2.607
				c-2.223,0.316-4.27,0.051-5.836-1.787C58.444,162.938,58.388,162.938,58.236,162.887z M63.981,157.745
				c0-1.138-0.014-2.274,0.006-3.414c0.013-0.642-0.317-0.966-0.901-1.009c-1.554-0.112-3.064,0.064-4.424,0.89
				c-0.202,0.123-0.388,0.457-0.392,0.694c-0.031,1.882-0.006,3.763-0.026,5.646c-0.004,0.373,0.11,0.569,0.438,0.752
				c1.371,0.756,2.838,0.944,4.371,0.828c0.662-0.052,0.939-0.396,0.934-1.043C63.974,159.977,63.983,158.859,63.981,157.745z"/>
			<path fill="#E3570F" d="M101.969,156.169c0-0.771,0.012-1.485-0.004-2.202c-0.01-0.518-0.346-0.766-0.814-0.773
				c-1.114-0.023-2.231-0.025-3.348,0.004c-0.58,0.014-0.877,0.367-0.873,0.955c0.002,0.207,0.002,0.414,0.002,0.666
				c-0.986,0-1.926,0-3.008,0c0.094-0.742,0.106-1.463,0.287-2.141c0.328-1.23,1.256-1.836,2.473-1.884
				c1.764-0.071,3.535-0.09,5.301-0.03c1.873,0.061,2.92,0.955,2.974,2.813c0.104,3.691,0.028,7.388,0.028,11.128
				c-0.993,0-1.955,0-2.981,0c0-0.61,0-1.207,0-1.908c-0.158,0.106-0.238,0.14-0.285,0.196c-1.594,1.953-3.695,2.132-5.949,1.658
				c-1.162-0.246-1.867-1.053-2.043-2.203c-0.139-0.887-0.203-1.811-0.119-2.7c0.162-1.767,1.256-2.847,3.062-3.076
				c1.52-0.196,3.051-0.299,4.576-0.44C101.471,156.208,101.698,156.189,101.969,156.169z M101.981,158.122
				c-1.655,0.271-3.192,0.485-4.713,0.782c-0.66,0.131-0.793,0.724-0.77,1.316c0.028,0.715-0.213,1.529,0.649,1.969
				c0.099,0.049,0.226,0.043,0.34,0.053c1.509,0.121,2.9-0.229,4.168-1.047c0.146-0.096,0.306-0.305,0.312-0.467
				C101.999,159.898,101.981,159.068,101.981,158.122z"/>
			<path fill="#E3570F" d="M40.489,157.682c0-1.304-0.021-2.605,0.007-3.908c0.036-1.859,1.021-2.935,2.86-2.996
				c1.904-0.066,3.814-0.07,5.72,0c1.792,0.063,2.817,1.092,2.854,2.865c0.054,2.719,0.053,5.442,0,8.164
				c-0.031,1.678-0.891,2.744-2.553,2.854c-2.148,0.145-4.324,0.117-6.472-0.049c-1.563-0.121-2.323-1.168-2.407-2.744
				c-0.007-0.092-0.009-0.186-0.009-0.275C40.489,160.285,40.489,158.982,40.489,157.682z M48.999,157.764
				c0-1.14,0.002-2.275,0-3.414c-0.002-0.646-0.308-1.01-0.968-1.013c-1.209-0.006-2.418-0.006-3.627,0.003
				c-0.615,0.006-0.952,0.329-0.956,0.948c-0.005,2.302-0.009,4.603,0.008,6.901c0.004,0.603,0.307,0.935,0.961,0.922
				c1.161-0.02,2.322,0.002,3.483-0.006c0.842-0.002,1.084-0.229,1.097-1.065C49.012,159.949,49.001,158.855,48.999,157.764z"/>
			<path fill="#E3570F" d="M81.555,157.706c0,1.327,0.023,2.653-0.006,3.979c-0.039,1.744-0.875,2.865-2.582,2.979
				c-2.148,0.145-4.324,0.109-6.472-0.053c-1.527-0.117-2.351-1.148-2.375-2.689c-0.045-2.814-0.05-5.631,0.004-8.445
				c0.028-1.563,1.084-2.627,2.649-2.686c1.951-0.07,3.908-0.086,5.857-0.02c1.914,0.065,2.896,1.164,2.922,3.098
				C81.571,155.146,81.557,156.428,81.555,157.706z M78.61,157.695h-0.002c0-1.114,0.002-2.229,0-3.346
				c-0.002-0.643-0.303-1.01-0.967-1.014c-1.207-0.006-2.416-0.006-3.625,0.002c-0.615,0.004-0.957,0.326-0.957,0.945
				c-0.008,2.303-0.01,4.604,0.004,6.904c0.004,0.6,0.303,0.936,0.959,0.924c1.115-0.02,2.23-0.002,3.349-0.004
				c1.043-0.002,1.233-0.197,1.239-1.273C78.614,159.788,78.61,158.742,78.61,157.695z"/>
			<path fill="#E3570F" d="M91.727,153.18c-1.024,0-2.014,0-3.094,0c0,0.432,0,0.795,0,1.16c0,2.188-0.004,4.372,0.002,6.561
				c0.002,1.199,0.139,1.332,1.313,1.334c0.578,0.004,1.156,0,1.779,0c0,0.852,0,1.648,0,2.479c-1.182,0-2.352,0.107-3.492-0.025
				c-1.752-0.203-2.586-1.281-2.608-3.201c-0.029-2.489-0.01-4.979-0.013-7.471c0-0.252,0-0.502,0-0.82c-0.7,0-1.344,0-2.032,0
				c0-0.842,0-1.619,0-2.465c0.678,0,1.321,0,2.035,0c0-1.149,0-2.229,0-3.356c0.989,0,1.907,0,2.897,0c0,1.084,0,2.164,0,3.332
				c1.103,0,2.133,0,3.211,0C91.727,151.544,91.727,152.303,91.727,153.18z"/>
			<path fill="#E3570F" d="M109.219,153.18c-0.729,0-1.354,0-2.029,0c0-0.816,0-1.595,0-2.441c0.664,0,1.308,0,2.021,0
				c0-1.15,0-2.23,0-3.361c0.99,0,1.908,0,2.922,0c0,1.088,0,2.186,0,3.342c1.109,0,2.127,0,3.193,0c0,0.834,0,1.609,0,2.453
				c-1.013,0-2.003,0-3.025,0c-0.027,0.193-0.062,0.324-0.062,0.457c-0.004,2.49-0.01,4.98,0,7.471
				c0.005,0.949,0.205,1.127,1.16,1.135c0.582,0.006,1.164,0.006,1.746,0.013c0.043,0,0.086,0.021,0.181,0.047
				c0,0.785,0,1.582,0,2.423c-1.166,0-2.334,0.104-3.476-0.023c-1.752-0.199-2.596-1.279-2.621-3.193
				c-0.028-2.49-0.01-4.98-0.012-7.471C109.219,153.773,109.219,153.521,109.219,153.18z"/>
		</g>
	</g>
</g>
<path id="ring" fill="#D8D8D8" d="M70.864,140.887c-38.565,0-69.941-31.377-69.941-69.943S32.298,1.001,70.864,1.001
	c38.566,0,69.943,31.376,69.943,69.942C140.807,109.51,109.43,140.887,70.864,140.887z M70.864,3.001
	c-37.463,0-67.941,30.479-67.941,67.942c0,37.463,30.479,67.942,67.941,67.942c37.465,0,67.943-30.479,67.943-67.942
	C138.807,33.48,108.329,3.001,70.864,3.001z"/>
</svg>
